<?xml version="1.0" encoding="UTF-8"?>
<svg xmlns="http://www.w3.org/2000/svg" xmlns:xlink="http://www.w3.org/1999/xlink" width="595.275591pt" height="841.889764pt" viewBox="0 0 595.275591 841.889764" version="1.2">
<g id="surface195245">
<rect x="0" y="0" width="595.275591" height="841.889764" style="fill:rgb(100%,100%,100%);fill-opacity:1;stroke:none;"/>
<path style="fill:none;stroke-width:47;stroke-linecap:round;stroke-linejoin:round;stroke:rgb(0%,0%,0%);stroke-opacity:1;stroke-miterlimit:10;" d="M 32384.114583 20320.052083 L 31903.90625 20800 " transform="matrix(0.015,0,0,0.015,0,0)"/>
<path style="fill:none;stroke-width:47;stroke-linecap:round;stroke-linejoin:round;stroke:rgb(0%,0%,0%);stroke-opacity:1;stroke-miterlimit:10;" d="M 32384.114583 18144.010417 L 32384.114583 20320.052083 " transform="matrix(0.015,0,0,0.015,0,0)"/>
<path style="fill:none;stroke-width:47;stroke-linecap:round;stroke-linejoin:round;stroke:rgb(0%,0%,0%);stroke-opacity:1;stroke-miterlimit:10;" d="M 31903.90625 21680.989583 L 31903.90625 20800 " transform="matrix(0.015,0,0,0.015,0,0)"/>
<path style="fill:none;stroke-width:47;stroke-linecap:round;stroke-linejoin:round;stroke:rgb(0%,0%,0%);stroke-opacity:1;stroke-miterlimit:10;" d="M 30944.010417 17920.052083 L 31903.90625 18879.947917 " transform="matrix(0.015,0,0,0.015,0,0)"/>
<path style="fill:none;stroke-width:47;stroke-linecap:round;stroke-linejoin:round;stroke:rgb(0%,0%,0%);stroke-opacity:1;stroke-miterlimit:10;" d="M 31903.90625 18879.947917 L 31205.989583 18879.947917 " transform="matrix(0.015,0,0,0.015,0,0)"/>
<path style="fill:none;stroke-width:47;stroke-linecap:round;stroke-linejoin:round;stroke:rgb(0%,0%,0%);stroke-opacity:1;stroke-miterlimit:10;" d="M 31903.90625 19840.104167 L 31105.989583 20638.020833 " transform="matrix(0.015,0,0,0.015,0,0)"/>
<path style="fill:none;stroke-width:47;stroke-linecap:round;stroke-linejoin:round;stroke:rgb(0%,0%,0%);stroke-opacity:1;stroke-miterlimit:10;" d="M 23503.90625 23200 L 23709.114583 23404.947917 " transform="matrix(0.015,0,0,0.015,0,0)"/>
<path style="fill:none;stroke-width:47;stroke-linecap:round;stroke-linejoin:round;stroke:rgb(0%,0%,0%);stroke-opacity:1;stroke-miterlimit:10;" d="M 23709.114583 23404.947917 L 30179.947917 23404.947917 " transform="matrix(0.015,0,0,0.015,0,0)"/>
<path style="fill:none;stroke-width:47;stroke-linecap:round;stroke-linejoin:round;stroke:rgb(0%,0%,0%);stroke-opacity:1;stroke-miterlimit:10;" d="M 30179.947917 23404.947917 L 30621.875 22964.0625 " transform="matrix(0.015,0,0,0.015,0,0)"/>
<path style="fill:none;stroke-width:47;stroke-linecap:round;stroke-linejoin:round;stroke:rgb(0%,0%,0%);stroke-opacity:1;stroke-miterlimit:10;" d="M 30621.875 22964.0625 L 31903.90625 21680.989583 " transform="matrix(0.015,0,0,0.015,0,0)"/>
<path style="fill:none;stroke-width:47;stroke-linecap:round;stroke-linejoin:round;stroke:rgb(0%,0%,0%);stroke-opacity:1;stroke-miterlimit:10;" d="M 29503.90625 20901.041667 L 30621.875 22019.010417 " transform="matrix(0.015,0,0,0.015,0,0)"/>
<path style="fill:none;stroke-width:47;stroke-linecap:round;stroke-linejoin:round;stroke:rgb(0%,0%,0%);stroke-opacity:1;stroke-miterlimit:10;" d="M 29503.90625 20582.03125 L 29503.90625 20901.041667 " transform="matrix(0.015,0,0,0.015,0,0)"/>
<path style="fill:none;stroke-width:47;stroke-linecap:round;stroke-linejoin:round;stroke:rgb(0%,0%,0%);stroke-opacity:1;stroke-miterlimit:10;" d="M 29920.052083 22720.052083 L 30621.875 22019.010417 " transform="matrix(0.015,0,0,0.015,0,0)"/>
<path style="fill:none;stroke-width:47;stroke-linecap:round;stroke-linejoin:round;stroke:rgb(0%,0%,0%);stroke-opacity:1;stroke-miterlimit:10;" d="M 28784.114583 22720.052083 L 29920.052083 22720.052083 " transform="matrix(0.015,0,0,0.015,0,0)"/>
<path style="fill:none;stroke-width:47;stroke-linecap:round;stroke-linejoin:round;stroke:rgb(0%,0%,0%);stroke-opacity:1;stroke-miterlimit:10;" d="M 31471.09375 17230.989583 L 32384.114583 18144.010417 " transform="matrix(0.015,0,0,0.015,0,0)"/>
<path style="fill:none;stroke-width:47;stroke-linecap:round;stroke-linejoin:round;stroke:rgb(0%,0%,0%);stroke-opacity:1;stroke-miterlimit:10;" d="M 31471.09375 16366.927083 L 31471.09375 17230.989583 " transform="matrix(0.015,0,0,0.015,0,0)"/>
<path style="fill:none;stroke-width:47;stroke-linecap:round;stroke-linejoin:round;stroke:rgb(0%,0%,0%);stroke-opacity:1;stroke-miterlimit:10;" d="M 32642.96875 16366.927083 L 32203.90625 15927.083333 " transform="matrix(0.015,0,0,0.015,0,0)"/>
<path style="fill:none;stroke-width:47;stroke-linecap:round;stroke-linejoin:round;stroke:rgb(0%,0%,0%);stroke-opacity:1;stroke-miterlimit:10;" d="M 30944.010417 16351.041667 L 30944.010417 17920.052083 " transform="matrix(0.015,0,0,0.015,0,0)"/>
<path style="fill:none;stroke-width:47;stroke-linecap:round;stroke-linejoin:round;stroke:rgb(0%,0%,0%);stroke-opacity:1;stroke-miterlimit:10;" d="M 32203.90625 15927.083333 L 31367.96875 15927.083333 " transform="matrix(0.015,0,0,0.015,0,0)"/>
<path style="fill:none;stroke-width:47;stroke-linecap:round;stroke-linejoin:round;stroke:rgb(0%,0%,0%);stroke-opacity:1;stroke-miterlimit:10;" d="M 31367.96875 15927.083333 L 30944.010417 16351.041667 " transform="matrix(0.015,0,0,0.015,0,0)"/>
<path style="fill:none;stroke-width:47;stroke-linecap:round;stroke-linejoin:round;stroke:rgb(0%,0%,0%);stroke-opacity:1;stroke-miterlimit:10;" d="M 31205.989583 18879.947917 L 29503.90625 20582.03125 " transform="matrix(0.015,0,0,0.015,0,0)"/>
<path style="fill:none;stroke-width:47;stroke-linecap:round;stroke-linejoin:round;stroke:rgb(0%,0%,0%);stroke-opacity:1;stroke-miterlimit:10;" d="M 29102.083333 18717.96875 L 28784.114583 18400 " transform="matrix(0.015,0,0,0.015,0,0)"/>
<path style="fill:none;stroke-width:47;stroke-linecap:round;stroke-linejoin:round;stroke:rgb(0%,0%,0%);stroke-opacity:1;stroke-miterlimit:10;" d="M 29747.916667 18717.96875 L 29102.083333 18717.96875 " transform="matrix(0.015,0,0,0.015,0,0)"/>
<path style="fill:none;stroke-width:47;stroke-linecap:round;stroke-linejoin:round;stroke:rgb(0%,0%,0%);stroke-opacity:1;stroke-miterlimit:10;" d="M 31105.989583 20638.020833 L 29747.916667 20638.020833 " transform="matrix(0.015,0,0,0.015,0,0)"/>
<path style=" stroke:none;fill-rule:nonzero;fill:rgb(0%,0%,0%);fill-opacity:1;" d="M 486.808594 239.113281 L 492.480469 239.113281 L 492.480469 251.878906 L 486.808594 251.878906 Z M 486.808594 239.113281 "/>
<path style="fill:none;stroke-width:378;stroke-linecap:round;stroke-linejoin:round;stroke:rgb(0%,0%,0%);stroke-opacity:1;stroke-miterlimit:10;" d="M 31471.09375 16178.125 L 31471.09375 16555.989583 " transform="matrix(0.015,0,0,0.015,0,0)"/>
<path style="fill:none;stroke-width:378;stroke-linecap:round;stroke-linejoin:round;stroke:rgb(0%,0%,0%);stroke-opacity:1;stroke-miterlimit:10;" d="M 31848.958333 17254.947917 L 32227.083333 17254.947917 " transform="matrix(0.015,0,0,0.015,0,0)"/>
<path style=" stroke:none;fill-rule:nonzero;fill:rgb(0%,0%,0%);fill-opacity:1;" d="M 354.726562 247.199219 C 354.726562 248.398438 353.757812 249.367188 352.558594 249.367188 C 351.363281 249.367188 350.390625 248.398438 350.390625 247.199219 C 350.390625 246.003906 351.363281 245.03125 352.558594 245.03125 C 353.757812 245.03125 354.726562 246.003906 354.726562 247.199219 Z M 354.726562 247.199219 "/>
<path style=" stroke:none;fill-rule:nonzero;fill:rgb(0%,0%,0%);fill-opacity:1;" d="M 433.925781 268.800781 C 433.925781 269.996094 432.957031 270.96875 431.761719 270.96875 C 430.5625 270.96875 429.59375 269.996094 429.59375 268.800781 C 429.59375 267.601562 430.5625 266.632812 431.761719 266.632812 C 432.957031 266.632812 433.925781 267.601562 433.925781 268.800781 Z M 433.925781 268.800781 "/>
<path style=" stroke:none;fill-rule:nonzero;fill:rgb(0%,0%,0%);fill-opacity:1;" d="M 433.925781 261.601562 C 433.925781 262.796875 432.957031 263.765625 431.761719 263.765625 C 430.5625 263.765625 429.59375 262.796875 429.59375 261.601562 C 429.59375 260.402344 430.5625 259.433594 431.761719 259.433594 C 432.957031 259.433594 433.925781 260.402344 433.925781 261.601562 Z M 433.925781 261.601562 "/>
<path style=" stroke:none;fill-rule:nonzero;fill:rgb(0%,0%,0%);fill-opacity:1;" d="M 433.925781 254.398438 C 433.925781 255.597656 432.957031 256.566406 431.761719 256.566406 C 430.5625 256.566406 429.59375 255.597656 429.59375 254.398438 C 429.59375 253.203125 430.5625 252.234375 431.761719 252.234375 C 432.957031 252.234375 433.925781 253.203125 433.925781 254.398438 Z M 433.925781 254.398438 "/>
<path style=" stroke:none;fill-rule:nonzero;fill:rgb(0%,0%,0%);fill-opacity:1;" d="M 433.925781 247.199219 C 433.925781 248.398438 432.957031 249.367188 431.761719 249.367188 C 430.5625 249.367188 429.59375 248.398438 429.59375 247.199219 C 429.59375 246.003906 430.5625 245.03125 431.761719 245.03125 C 432.957031 245.03125 433.925781 246.003906 433.925781 247.199219 Z M 433.925781 247.199219 "/>
<path style=" stroke:none;fill-rule:nonzero;fill:rgb(0%,0%,0%);fill-opacity:1;" d="M 354.726562 254.398438 C 354.726562 255.597656 353.757812 256.566406 352.558594 256.566406 C 351.363281 256.566406 350.390625 255.597656 350.390625 254.398438 C 350.390625 253.203125 351.363281 252.234375 352.558594 252.234375 C 353.757812 252.234375 354.726562 253.203125 354.726562 254.398438 Z M 354.726562 254.398438 "/>
<path style=" stroke:none;fill-rule:nonzero;fill:rgb(0%,0%,0%);fill-opacity:1;" d="M 354.726562 261.601562 C 354.726562 262.796875 353.757812 263.765625 352.558594 263.765625 C 351.363281 263.765625 350.390625 262.796875 350.390625 261.601562 C 350.390625 260.402344 351.363281 259.433594 352.558594 259.433594 C 353.757812 259.433594 354.726562 260.402344 354.726562 261.601562 Z M 354.726562 261.601562 "/>
<path style=" stroke:none;fill-rule:nonzero;fill:rgb(0%,0%,0%);fill-opacity:1;" d="M 354.726562 268.800781 C 354.726562 269.996094 353.757812 270.96875 352.558594 270.96875 C 351.363281 270.96875 350.390625 269.996094 350.390625 268.800781 C 350.390625 267.601562 351.363281 266.632812 352.558594 266.632812 C 353.757812 266.632812 354.726562 267.601562 354.726562 268.800781 Z M 354.726562 268.800781 "/>
<path style=" stroke:none;fill-rule:nonzero;fill:rgb(0%,0%,0%);fill-opacity:1;" d="M 354.726562 276 C 354.726562 277.195312 353.757812 278.167969 352.558594 278.167969 C 351.363281 278.167969 350.390625 277.195312 350.390625 276 C 350.390625 274.804688 351.363281 273.832031 352.558594 273.832031 C 353.757812 273.832031 354.726562 274.804688 354.726562 276 Z M 354.726562 276 "/>
<path style=" stroke:none;fill-rule:nonzero;fill:rgb(0%,0%,0%);fill-opacity:1;" d="M 354.726562 283.199219 C 354.726562 284.398438 353.757812 285.367188 352.558594 285.367188 C 351.363281 285.367188 350.390625 284.398438 350.390625 283.199219 C 350.390625 282.003906 351.363281 281.03125 352.558594 281.03125 C 353.757812 281.03125 354.726562 282.003906 354.726562 283.199219 Z M 354.726562 283.199219 "/>
<path style=" stroke:none;fill-rule:nonzero;fill:rgb(0%,0%,0%);fill-opacity:1;" d="M 354.726562 290.398438 C 354.726562 291.597656 353.757812 292.566406 352.558594 292.566406 C 351.363281 292.566406 350.390625 291.597656 350.390625 290.398438 C 350.390625 289.203125 351.363281 288.234375 352.558594 288.234375 C 353.757812 288.234375 354.726562 289.203125 354.726562 290.398438 Z M 354.726562 290.398438 "/>
<path style=" stroke:none;fill-rule:nonzero;fill:rgb(0%,0%,0%);fill-opacity:1;" d="M 354.726562 297.601562 C 354.726562 298.796875 353.757812 299.765625 352.558594 299.765625 C 351.363281 299.765625 350.390625 298.796875 350.390625 297.601562 C 350.390625 296.402344 351.363281 295.433594 352.558594 295.433594 C 353.757812 295.433594 354.726562 296.402344 354.726562 297.601562 Z M 354.726562 297.601562 "/>
<path style=" stroke:none;fill-rule:nonzero;fill:rgb(0%,0%,0%);fill-opacity:1;" d="M 354.726562 304.800781 C 354.726562 305.996094 353.757812 306.96875 352.558594 306.96875 C 351.363281 306.96875 350.390625 305.996094 350.390625 304.800781 C 350.390625 303.601562 351.363281 302.632812 352.558594 302.632812 C 353.757812 302.632812 354.726562 303.601562 354.726562 304.800781 Z M 354.726562 304.800781 "/>
<path style=" stroke:none;fill-rule:nonzero;fill:rgb(0%,0%,0%);fill-opacity:1;" d="M 354.726562 312 C 354.726562 313.195312 353.757812 314.167969 352.558594 314.167969 C 351.363281 314.167969 350.390625 313.195312 350.390625 312 C 350.390625 310.804688 351.363281 309.832031 352.558594 309.832031 C 353.757812 309.832031 354.726562 310.804688 354.726562 312 Z M 354.726562 312 "/>
<path style=" stroke:none;fill-rule:nonzero;fill:rgb(0%,0%,0%);fill-opacity:1;" d="M 354.726562 319.199219 C 354.726562 320.398438 353.757812 321.367188 352.558594 321.367188 C 351.363281 321.367188 350.390625 320.398438 350.390625 319.199219 C 350.390625 318.003906 351.363281 317.03125 352.558594 317.03125 C 353.757812 317.03125 354.726562 318.003906 354.726562 319.199219 Z M 354.726562 319.199219 "/>
<path style=" stroke:none;fill-rule:nonzero;fill:rgb(0%,0%,0%);fill-opacity:1;" d="M 354.726562 326.398438 C 354.726562 327.597656 353.757812 328.566406 352.558594 328.566406 C 351.363281 328.566406 350.390625 327.597656 350.390625 326.398438 C 350.390625 325.203125 351.363281 324.234375 352.558594 324.234375 C 353.757812 324.234375 354.726562 325.203125 354.726562 326.398438 Z M 354.726562 326.398438 "/>
<path style=" stroke:none;fill-rule:nonzero;fill:rgb(0%,0%,0%);fill-opacity:1;" d="M 354.726562 333.601562 C 354.726562 334.796875 353.757812 335.765625 352.558594 335.765625 C 351.363281 335.765625 350.390625 334.796875 350.390625 333.601562 C 350.390625 332.402344 351.363281 331.433594 352.558594 331.433594 C 353.757812 331.433594 354.726562 332.402344 354.726562 333.601562 Z M 354.726562 333.601562 "/>
<path style=" stroke:none;fill-rule:nonzero;fill:rgb(0%,0%,0%);fill-opacity:1;" d="M 354.726562 340.800781 C 354.726562 341.996094 353.757812 342.96875 352.558594 342.96875 C 351.363281 342.96875 350.390625 341.996094 350.390625 340.800781 C 350.390625 339.601562 351.363281 338.632812 352.558594 338.632812 C 353.757812 338.632812 354.726562 339.601562 354.726562 340.800781 Z M 354.726562 340.800781 "/>
<path style=" stroke:none;fill-rule:nonzero;fill:rgb(0%,0%,0%);fill-opacity:1;" d="M 354.726562 348 C 354.726562 349.195312 353.757812 350.167969 352.558594 350.167969 C 351.363281 350.167969 350.390625 349.195312 350.390625 348 C 350.390625 346.804688 351.363281 345.832031 352.558594 345.832031 C 353.757812 345.832031 354.726562 346.804688 354.726562 348 Z M 354.726562 348 "/>
<path style=" stroke:none;fill-rule:nonzero;fill:rgb(0%,0%,0%);fill-opacity:1;" d="M 433.925781 348 C 433.925781 349.195312 432.957031 350.167969 431.761719 350.167969 C 430.5625 350.167969 429.59375 349.195312 429.59375 348 C 429.59375 346.804688 430.5625 345.832031 431.761719 345.832031 C 432.957031 345.832031 433.925781 346.804688 433.925781 348 Z M 433.925781 348 "/>
<path style=" stroke:none;fill-rule:nonzero;fill:rgb(0%,0%,0%);fill-opacity:1;" d="M 433.925781 340.800781 C 433.925781 341.996094 432.957031 342.96875 431.761719 342.96875 C 430.5625 342.96875 429.59375 341.996094 429.59375 340.800781 C 429.59375 339.601562 430.5625 338.632812 431.761719 338.632812 C 432.957031 338.632812 433.925781 339.601562 433.925781 340.800781 Z M 433.925781 340.800781 "/>
<path style=" stroke:none;fill-rule:nonzero;fill:rgb(0%,0%,0%);fill-opacity:1;" d="M 433.925781 333.601562 C 433.925781 334.796875 432.957031 335.765625 431.761719 335.765625 C 430.5625 335.765625 429.59375 334.796875 429.59375 333.601562 C 429.59375 332.402344 430.5625 331.433594 431.761719 331.433594 C 432.957031 331.433594 433.925781 332.402344 433.925781 333.601562 Z M 433.925781 333.601562 "/>
<path style=" stroke:none;fill-rule:nonzero;fill:rgb(0%,0%,0%);fill-opacity:1;" d="M 433.925781 326.398438 C 433.925781 327.597656 432.957031 328.566406 431.761719 328.566406 C 430.5625 328.566406 429.59375 327.597656 429.59375 326.398438 C 429.59375 325.203125 430.5625 324.234375 431.761719 324.234375 C 432.957031 324.234375 433.925781 325.203125 433.925781 326.398438 Z M 433.925781 326.398438 "/>
<path style=" stroke:none;fill-rule:nonzero;fill:rgb(0%,0%,0%);fill-opacity:1;" d="M 433.925781 319.199219 C 433.925781 320.398438 432.957031 321.367188 431.761719 321.367188 C 430.5625 321.367188 429.59375 320.398438 429.59375 319.199219 C 429.59375 318.003906 430.5625 317.03125 431.761719 317.03125 C 432.957031 317.03125 433.925781 318.003906 433.925781 319.199219 Z M 433.925781 319.199219 "/>
<path style=" stroke:none;fill-rule:nonzero;fill:rgb(0%,0%,0%);fill-opacity:1;" d="M 456.496094 341.625 L 462.164062 341.625 L 462.164062 347.296875 L 456.496094 347.296875 Z M 456.496094 341.625 "/>
<path style=" stroke:none;fill-rule:nonzero;fill:rgb(0%,0%,0%);fill-opacity:1;" d="M 462.171875 330.285156 C 462.171875 331.855469 460.898438 333.128906 459.328125 333.128906 C 457.761719 333.128906 456.488281 331.855469 456.488281 330.285156 C 456.488281 328.714844 457.761719 327.441406 459.328125 327.441406 C 460.898438 327.441406 462.171875 328.714844 462.171875 330.285156 Z M 462.171875 330.285156 "/>
<path style=" stroke:none;fill-rule:nonzero;fill:rgb(0%,0%,0%);fill-opacity:1;" d="M 433.925781 297.601562 C 433.925781 298.796875 432.957031 299.765625 431.761719 299.765625 C 430.5625 299.765625 429.59375 298.796875 429.59375 297.601562 C 429.59375 296.402344 430.5625 295.433594 431.761719 295.433594 C 432.957031 295.433594 433.925781 296.402344 433.925781 297.601562 Z M 433.925781 297.601562 "/>
<path style=" stroke:none;fill-rule:nonzero;fill:rgb(0%,0%,0%);fill-opacity:1;" d="M 433.925781 290.398438 C 433.925781 291.597656 432.957031 292.566406 431.761719 292.566406 C 430.5625 292.566406 429.59375 291.597656 429.59375 290.398438 C 429.59375 289.203125 430.5625 288.234375 431.761719 288.234375 C 432.957031 288.234375 433.925781 289.203125 433.925781 290.398438 Z M 433.925781 290.398438 "/>
<path style=" stroke:none;fill-rule:nonzero;fill:rgb(0%,0%,0%);fill-opacity:1;" d="M 433.925781 283.199219 C 433.925781 284.398438 432.957031 285.367188 431.761719 285.367188 C 430.5625 285.367188 429.59375 284.398438 429.59375 283.199219 C 429.59375 282.003906 430.5625 281.03125 431.761719 281.03125 C 432.957031 281.03125 433.925781 282.003906 433.925781 283.199219 Z M 433.925781 283.199219 "/>
<path style=" stroke:none;fill-rule:nonzero;fill:rgb(0%,0%,0%);fill-opacity:1;" d="M 433.925781 276 C 433.925781 277.195312 432.957031 278.167969 431.761719 278.167969 C 430.5625 278.167969 429.59375 277.195312 429.59375 276 C 429.59375 274.804688 430.5625 273.832031 431.761719 273.832031 C 432.957031 273.832031 433.925781 274.804688 433.925781 276 Z M 433.925781 276 "/>
<path style=" stroke:none;fill-rule:nonzero;fill:rgb(0%,0%,0%);fill-opacity:1;" d="M 448.492188 280.769531 C 448.492188 282.023438 447.476562 283.042969 446.21875 283.042969 C 444.964844 283.042969 443.949219 282.023438 443.949219 280.769531 C 443.949219 279.515625 444.964844 278.496094 446.21875 278.496094 C 447.476562 278.496094 448.492188 279.515625 448.492188 280.769531 Z M 448.492188 280.769531 "/>
<path style=" stroke:none;fill-rule:nonzero;fill:rgb(0%,0%,0%);fill-opacity:1;" d="M 433.925781 312 C 433.925781 313.195312 432.957031 314.167969 431.761719 314.167969 C 430.5625 314.167969 429.59375 313.195312 429.59375 312 C 429.59375 310.804688 430.5625 309.832031 431.761719 309.832031 C 432.957031 309.832031 433.925781 310.804688 433.925781 312 Z M 433.925781 312 "/>
<path style=" stroke:none;fill-rule:nonzero;fill:rgb(0%,0%,0%);fill-opacity:1;" d="M 433.925781 304.800781 C 433.925781 305.996094 432.957031 306.96875 431.761719 306.96875 C 430.5625 306.96875 429.59375 305.996094 429.59375 304.800781 C 429.59375 303.601562 430.5625 302.632812 431.761719 302.632812 C 432.957031 302.632812 433.925781 303.601562 433.925781 304.800781 Z M 433.925781 304.800781 "/>
<path style=" stroke:none;fill-rule:nonzero;fill:rgb(0%,0%,0%);fill-opacity:1;" d="M 448.492188 309.570312 C 448.492188 310.824219 447.476562 311.84375 446.21875 311.84375 C 444.964844 311.84375 443.949219 310.824219 443.949219 309.570312 C 443.949219 308.316406 444.964844 307.296875 446.21875 307.296875 C 447.476562 307.296875 448.492188 308.316406 448.492188 309.570312 Z M 448.492188 309.570312 "/>
<path style=" stroke:none;fill-rule:nonzero;fill:rgb(0%,0%,0%);fill-opacity:1;" d="M 474.316406 307.753906 L 482.804688 307.753906 L 482.804688 316.246094 L 474.316406 316.246094 Z M 474.316406 307.753906 "/>
<path style=" stroke:none;fill-rule:nonzero;fill:rgb(0%,0%,0%);fill-opacity:1;" d="M 482.8125 297.601562 C 482.8125 299.949219 480.910156 301.851562 478.558594 301.851562 C 476.210938 301.851562 474.308594 299.949219 474.308594 297.601562 C 474.308594 295.25 476.210938 293.347656 478.558594 293.347656 C 480.910156 293.347656 482.8125 295.25 482.8125 297.601562 Z M 482.8125 297.601562 "/>
<path style=" stroke:none;fill-rule:nonzero;fill:rgb(0%,0%,0%);fill-opacity:1;" d="M 482.8125 283.199219 C 482.8125 285.546875 480.910156 287.453125 478.558594 287.453125 C 476.210938 287.453125 474.308594 285.546875 474.308594 283.199219 C 474.308594 280.851562 476.210938 278.949219 478.558594 278.949219 C 480.910156 278.949219 482.8125 280.851562 482.8125 283.199219 Z M 482.8125 283.199219 "/>
<path style="fill:none;stroke-width:189;stroke-linecap:round;stroke-linejoin:round;stroke:rgb(100%,100%,100%);stroke-opacity:1;stroke-miterlimit:10;" d="M 32642.96875 16129.947917 L 32642.96875 16603.125 " transform="matrix(0.015,0,0,0.015,0,0)"/>
<path style="fill:none;stroke-width:189;stroke-linecap:round;stroke-linejoin:round;stroke:rgb(100%,100%,100%);stroke-opacity:1;stroke-miterlimit:10;" d="M 31471.09375 16178.125 L 31471.09375 16555.989583 " transform="matrix(0.015,0,0,0.015,0,0)"/>
<path style="fill:none;stroke-width:189;stroke-linecap:round;stroke-linejoin:round;stroke:rgb(100%,100%,100%);stroke-opacity:1;stroke-miterlimit:10;" d="M 31848.958333 17254.947917 L 32227.083333 17254.947917 " transform="matrix(0.015,0,0,0.015,0,0)"/>
<path style=" stroke:none;fill-rule:nonzero;fill:rgb(100%,100%,100%);fill-opacity:1;" d="M 353.648438 247.199219 C 353.648438 247.800781 353.160156 248.289062 352.558594 248.289062 C 351.960938 248.289062 351.472656 247.800781 351.472656 247.199219 C 351.472656 246.597656 351.960938 246.113281 352.558594 246.113281 C 353.160156 246.113281 353.648438 246.597656 353.648438 247.199219 Z M 353.648438 247.199219 "/>
<path style=" stroke:none;fill-rule:nonzero;fill:rgb(100%,100%,100%);fill-opacity:1;" d="M 432.847656 268.800781 C 432.847656 269.402344 432.359375 269.886719 431.761719 269.886719 C 431.160156 269.886719 430.671875 269.402344 430.671875 268.800781 C 430.671875 268.199219 431.160156 267.710938 431.761719 267.710938 C 432.359375 267.710938 432.847656 268.199219 432.847656 268.800781 Z M 432.847656 268.800781 "/>
<path style=" stroke:none;fill-rule:nonzero;fill:rgb(100%,100%,100%);fill-opacity:1;" d="M 432.847656 261.601562 C 432.847656 262.199219 432.359375 262.6875 431.761719 262.6875 C 431.160156 262.6875 430.671875 262.199219 430.671875 261.601562 C 430.671875 261 431.160156 260.511719 431.761719 260.511719 C 432.359375 260.511719 432.847656 261 432.847656 261.601562 Z M 432.847656 261.601562 "/>
<path style=" stroke:none;fill-rule:nonzero;fill:rgb(100%,100%,100%);fill-opacity:1;" d="M 432.847656 254.398438 C 432.847656 255 432.359375 255.488281 431.761719 255.488281 C 431.160156 255.488281 430.671875 255 430.671875 254.398438 C 430.671875 253.800781 431.160156 253.3125 431.761719 253.3125 C 432.359375 253.3125 432.847656 253.800781 432.847656 254.398438 Z M 432.847656 254.398438 "/>
<path style=" stroke:none;fill-rule:nonzero;fill:rgb(100%,100%,100%);fill-opacity:1;" d="M 432.847656 247.199219 C 432.847656 247.800781 432.359375 248.289062 431.761719 248.289062 C 431.160156 248.289062 430.671875 247.800781 430.671875 247.199219 C 430.671875 246.597656 431.160156 246.113281 431.761719 246.113281 C 432.359375 246.113281 432.847656 246.597656 432.847656 247.199219 Z M 432.847656 247.199219 "/>
<path style=" stroke:none;fill-rule:nonzero;fill:rgb(100%,100%,100%);fill-opacity:1;" d="M 353.648438 254.398438 C 353.648438 255 353.160156 255.488281 352.558594 255.488281 C 351.960938 255.488281 351.472656 255 351.472656 254.398438 C 351.472656 253.800781 351.960938 253.3125 352.558594 253.3125 C 353.160156 253.3125 353.648438 253.800781 353.648438 254.398438 Z M 353.648438 254.398438 "/>
<path style=" stroke:none;fill-rule:nonzero;fill:rgb(100%,100%,100%);fill-opacity:1;" d="M 353.648438 261.601562 C 353.648438 262.199219 353.160156 262.6875 352.558594 262.6875 C 351.960938 262.6875 351.472656 262.199219 351.472656 261.601562 C 351.472656 261 351.960938 260.511719 352.558594 260.511719 C 353.160156 260.511719 353.648438 261 353.648438 261.601562 Z M 353.648438 261.601562 "/>
<path style=" stroke:none;fill-rule:nonzero;fill:rgb(100%,100%,100%);fill-opacity:1;" d="M 353.648438 268.800781 C 353.648438 269.402344 353.160156 269.886719 352.558594 269.886719 C 351.960938 269.886719 351.472656 269.402344 351.472656 268.800781 C 351.472656 268.199219 351.960938 267.710938 352.558594 267.710938 C 353.160156 267.710938 353.648438 268.199219 353.648438 268.800781 Z M 353.648438 268.800781 "/>
<path style=" stroke:none;fill-rule:nonzero;fill:rgb(100%,100%,100%);fill-opacity:1;" d="M 353.648438 276 C 353.648438 276.601562 353.160156 277.085938 352.558594 277.085938 C 351.960938 277.085938 351.472656 276.601562 351.472656 276 C 351.472656 275.398438 351.960938 274.914062 352.558594 274.914062 C 353.160156 274.914062 353.648438 275.398438 353.648438 276 Z M 353.648438 276 "/>
<path style=" stroke:none;fill-rule:nonzero;fill:rgb(100%,100%,100%);fill-opacity:1;" d="M 353.648438 283.199219 C 353.648438 283.800781 353.160156 284.289062 352.558594 284.289062 C 351.960938 284.289062 351.472656 283.800781 351.472656 283.199219 C 351.472656 282.597656 351.960938 282.113281 352.558594 282.113281 C 353.160156 282.113281 353.648438 282.597656 353.648438 283.199219 Z M 353.648438 283.199219 "/>
<path style=" stroke:none;fill-rule:nonzero;fill:rgb(100%,100%,100%);fill-opacity:1;" d="M 353.648438 290.398438 C 353.648438 291 353.160156 291.488281 352.558594 291.488281 C 351.960938 291.488281 351.472656 291 351.472656 290.398438 C 351.472656 289.800781 351.960938 289.3125 352.558594 289.3125 C 353.160156 289.3125 353.648438 289.800781 353.648438 290.398438 Z M 353.648438 290.398438 "/>
<path style=" stroke:none;fill-rule:nonzero;fill:rgb(100%,100%,100%);fill-opacity:1;" d="M 353.648438 297.601562 C 353.648438 298.199219 353.160156 298.6875 352.558594 298.6875 C 351.960938 298.6875 351.472656 298.199219 351.472656 297.601562 C 351.472656 297 351.960938 296.511719 352.558594 296.511719 C 353.160156 296.511719 353.648438 297 353.648438 297.601562 Z M 353.648438 297.601562 "/>
<path style=" stroke:none;fill-rule:nonzero;fill:rgb(100%,100%,100%);fill-opacity:1;" d="M 353.648438 304.800781 C 353.648438 305.402344 353.160156 305.886719 352.558594 305.886719 C 351.960938 305.886719 351.472656 305.402344 351.472656 304.800781 C 351.472656 304.199219 351.960938 303.710938 352.558594 303.710938 C 353.160156 303.710938 353.648438 304.199219 353.648438 304.800781 Z M 353.648438 304.800781 "/>
<path style=" stroke:none;fill-rule:nonzero;fill:rgb(100%,100%,100%);fill-opacity:1;" d="M 353.648438 312 C 353.648438 312.601562 353.160156 313.085938 352.558594 313.085938 C 351.960938 313.085938 351.472656 312.601562 351.472656 312 C 351.472656 311.398438 351.960938 310.914062 352.558594 310.914062 C 353.160156 310.914062 353.648438 311.398438 353.648438 312 Z M 353.648438 312 "/>
<path style=" stroke:none;fill-rule:nonzero;fill:rgb(100%,100%,100%);fill-opacity:1;" d="M 353.648438 319.199219 C 353.648438 319.800781 353.160156 320.289062 352.558594 320.289062 C 351.960938 320.289062 351.472656 319.800781 351.472656 319.199219 C 351.472656 318.597656 351.960938 318.113281 352.558594 318.113281 C 353.160156 318.113281 353.648438 318.597656 353.648438 319.199219 Z M 353.648438 319.199219 "/>
<path style=" stroke:none;fill-rule:nonzero;fill:rgb(100%,100%,100%);fill-opacity:1;" d="M 353.648438 326.398438 C 353.648438 327 353.160156 327.488281 352.558594 327.488281 C 351.960938 327.488281 351.472656 327 351.472656 326.398438 C 351.472656 325.800781 351.960938 325.3125 352.558594 325.3125 C 353.160156 325.3125 353.648438 325.800781 353.648438 326.398438 Z M 353.648438 326.398438 "/>
<path style=" stroke:none;fill-rule:nonzero;fill:rgb(100%,100%,100%);fill-opacity:1;" d="M 353.648438 333.601562 C 353.648438 334.199219 353.160156 334.6875 352.558594 334.6875 C 351.960938 334.6875 351.472656 334.199219 351.472656 333.601562 C 351.472656 333 351.960938 332.511719 352.558594 332.511719 C 353.160156 332.511719 353.648438 333 353.648438 333.601562 Z M 353.648438 333.601562 "/>
<path style=" stroke:none;fill-rule:nonzero;fill:rgb(100%,100%,100%);fill-opacity:1;" d="M 353.648438 340.800781 C 353.648438 341.402344 353.160156 341.886719 352.558594 341.886719 C 351.960938 341.886719 351.472656 341.402344 351.472656 340.800781 C 351.472656 340.199219 351.960938 339.710938 352.558594 339.710938 C 353.160156 339.710938 353.648438 340.199219 353.648438 340.800781 Z M 353.648438 340.800781 "/>
<path style=" stroke:none;fill-rule:nonzero;fill:rgb(100%,100%,100%);fill-opacity:1;" d="M 353.648438 348 C 353.648438 348.601562 353.160156 349.085938 352.558594 349.085938 C 351.960938 349.085938 351.472656 348.601562 351.472656 348 C 351.472656 347.398438 351.960938 346.914062 352.558594 346.914062 C 353.160156 346.914062 353.648438 347.398438 353.648438 348 Z M 353.648438 348 "/>
<path style=" stroke:none;fill-rule:nonzero;fill:rgb(100%,100%,100%);fill-opacity:1;" d="M 432.847656 348 C 432.847656 348.601562 432.359375 349.085938 431.761719 349.085938 C 431.160156 349.085938 430.671875 348.601562 430.671875 348 C 430.671875 347.398438 431.160156 346.914062 431.761719 346.914062 C 432.359375 346.914062 432.847656 347.398438 432.847656 348 Z M 432.847656 348 "/>
<path style=" stroke:none;fill-rule:nonzero;fill:rgb(100%,100%,100%);fill-opacity:1;" d="M 432.847656 340.800781 C 432.847656 341.402344 432.359375 341.886719 431.761719 341.886719 C 431.160156 341.886719 430.671875 341.402344 430.671875 340.800781 C 430.671875 340.199219 431.160156 339.710938 431.761719 339.710938 C 432.359375 339.710938 432.847656 340.199219 432.847656 340.800781 Z M 432.847656 340.800781 "/>
<path style=" stroke:none;fill-rule:nonzero;fill:rgb(100%,100%,100%);fill-opacity:1;" d="M 432.847656 333.601562 C 432.847656 334.199219 432.359375 334.6875 431.761719 334.6875 C 431.160156 334.6875 430.671875 334.199219 430.671875 333.601562 C 430.671875 333 431.160156 332.511719 431.761719 332.511719 C 432.359375 332.511719 432.847656 333 432.847656 333.601562 Z M 432.847656 333.601562 "/>
<path style=" stroke:none;fill-rule:nonzero;fill:rgb(100%,100%,100%);fill-opacity:1;" d="M 432.847656 326.398438 C 432.847656 327 432.359375 327.488281 431.761719 327.488281 C 431.160156 327.488281 430.671875 327 430.671875 326.398438 C 430.671875 325.800781 431.160156 325.3125 431.761719 325.3125 C 432.359375 325.3125 432.847656 325.800781 432.847656 326.398438 Z M 432.847656 326.398438 "/>
<path style=" stroke:none;fill-rule:nonzero;fill:rgb(100%,100%,100%);fill-opacity:1;" d="M 432.847656 319.199219 C 432.847656 319.800781 432.359375 320.289062 431.761719 320.289062 C 431.160156 320.289062 430.671875 319.800781 430.671875 319.199219 C 430.671875 318.597656 431.160156 318.113281 431.761719 318.113281 C 432.359375 318.113281 432.847656 318.597656 432.847656 319.199219 Z M 432.847656 319.199219 "/>
<path style=" stroke:none;fill-rule:nonzero;fill:rgb(100%,100%,100%);fill-opacity:1;" d="M 460.746094 344.460938 C 460.746094 345.242188 460.113281 345.878906 459.328125 345.878906 C 458.546875 345.878906 457.914062 345.242188 457.914062 344.460938 C 457.914062 343.675781 458.546875 343.042969 459.328125 343.042969 C 460.113281 343.042969 460.746094 343.675781 460.746094 344.460938 Z M 460.746094 344.460938 "/>
<path style=" stroke:none;fill-rule:nonzero;fill:rgb(100%,100%,100%);fill-opacity:1;" d="M 460.746094 330.285156 C 460.746094 331.066406 460.113281 331.703125 459.328125 331.703125 C 458.546875 331.703125 457.914062 331.066406 457.914062 330.285156 C 457.914062 329.503906 458.546875 328.867188 459.328125 328.867188 C 460.113281 328.867188 460.746094 329.503906 460.746094 330.285156 Z M 460.746094 330.285156 "/>
<path style=" stroke:none;fill-rule:nonzero;fill:rgb(100%,100%,100%);fill-opacity:1;" d="M 432.847656 297.601562 C 432.847656 298.199219 432.359375 298.6875 431.761719 298.6875 C 431.160156 298.6875 430.671875 298.199219 430.671875 297.601562 C 430.671875 297 431.160156 296.511719 431.761719 296.511719 C 432.359375 296.511719 432.847656 297 432.847656 297.601562 Z M 432.847656 297.601562 "/>
<path style=" stroke:none;fill-rule:nonzero;fill:rgb(100%,100%,100%);fill-opacity:1;" d="M 432.847656 290.398438 C 432.847656 291 432.359375 291.488281 431.761719 291.488281 C 431.160156 291.488281 430.671875 291 430.671875 290.398438 C 430.671875 289.800781 431.160156 289.3125 431.761719 289.3125 C 432.359375 289.3125 432.847656 289.800781 432.847656 290.398438 Z M 432.847656 290.398438 "/>
<path style=" stroke:none;fill-rule:nonzero;fill:rgb(100%,100%,100%);fill-opacity:1;" d="M 432.847656 283.199219 C 432.847656 283.800781 432.359375 284.289062 431.761719 284.289062 C 431.160156 284.289062 430.671875 283.800781 430.671875 283.199219 C 430.671875 282.597656 431.160156 282.113281 431.761719 282.113281 C 432.359375 282.113281 432.847656 282.597656 432.847656 283.199219 Z M 432.847656 283.199219 "/>
<path style=" stroke:none;fill-rule:nonzero;fill:rgb(100%,100%,100%);fill-opacity:1;" d="M 432.847656 276 C 432.847656 276.601562 432.359375 277.085938 431.761719 277.085938 C 431.160156 277.085938 430.671875 276.601562 430.671875 276 C 430.671875 275.398438 431.160156 274.914062 431.761719 274.914062 C 432.359375 274.914062 432.847656 275.398438 432.847656 276 Z M 432.847656 276 "/>
<path style=" stroke:none;fill-rule:nonzero;fill:rgb(100%,100%,100%);fill-opacity:1;" d="M 447.367188 280.769531 C 447.367188 281.402344 446.855469 281.917969 446.21875 281.917969 C 445.585938 281.917969 445.074219 281.402344 445.074219 280.769531 C 445.074219 280.136719 445.585938 279.621094 446.21875 279.621094 C 446.855469 279.621094 447.367188 280.136719 447.367188 280.769531 Z M 447.367188 280.769531 "/>
<path style=" stroke:none;fill-rule:nonzero;fill:rgb(100%,100%,100%);fill-opacity:1;" d="M 432.847656 312 C 432.847656 312.601562 432.359375 313.085938 431.761719 313.085938 C 431.160156 313.085938 430.671875 312.601562 430.671875 312 C 430.671875 311.398438 431.160156 310.914062 431.761719 310.914062 C 432.359375 310.914062 432.847656 311.398438 432.847656 312 Z M 432.847656 312 "/>
<path style=" stroke:none;fill-rule:nonzero;fill:rgb(100%,100%,100%);fill-opacity:1;" d="M 432.847656 304.800781 C 432.847656 305.402344 432.359375 305.886719 431.761719 305.886719 C 431.160156 305.886719 430.671875 305.402344 430.671875 304.800781 C 430.671875 304.199219 431.160156 303.710938 431.761719 303.710938 C 432.359375 303.710938 432.847656 304.199219 432.847656 304.800781 Z M 432.847656 304.800781 "/>
<path style=" stroke:none;fill-rule:nonzero;fill:rgb(100%,100%,100%);fill-opacity:1;" d="M 447.367188 309.570312 C 447.367188 310.203125 446.855469 310.71875 446.21875 310.71875 C 445.585938 310.71875 445.074219 310.203125 445.074219 309.570312 C 445.074219 308.9375 445.585938 308.421875 446.21875 308.421875 C 446.855469 308.421875 447.367188 308.9375 447.367188 309.570312 Z M 447.367188 309.570312 "/>
<path style=" stroke:none;fill-rule:nonzero;fill:rgb(100%,100%,100%);fill-opacity:1;" d="M 480.726562 312 C 480.726562 313.195312 479.757812 314.167969 478.558594 314.167969 C 477.363281 314.167969 476.390625 313.195312 476.390625 312 C 476.390625 310.804688 477.363281 309.832031 478.558594 309.832031 C 479.757812 309.832031 480.726562 310.804688 480.726562 312 Z M 480.726562 312 "/>
<path style=" stroke:none;fill-rule:nonzero;fill:rgb(100%,100%,100%);fill-opacity:1;" d="M 480.726562 297.601562 C 480.726562 298.796875 479.757812 299.765625 478.558594 299.765625 C 477.363281 299.765625 476.390625 298.796875 476.390625 297.601562 C 476.390625 296.402344 477.363281 295.433594 478.558594 295.433594 C 479.757812 295.433594 480.726562 296.402344 480.726562 297.601562 Z M 480.726562 297.601562 "/>
<path style=" stroke:none;fill-rule:nonzero;fill:rgb(100%,100%,100%);fill-opacity:1;" d="M 480.726562 283.199219 C 480.726562 284.398438 479.757812 285.367188 478.558594 285.367188 C 477.363281 285.367188 476.390625 284.398438 476.390625 283.199219 C 476.390625 282.003906 477.363281 281.03125 478.558594 281.03125 C 479.757812 281.03125 480.726562 282.003906 480.726562 283.199219 Z M 480.726562 283.199219 "/>
</g>
</svg>
