%TF.GenerationSoftware,KiCad,Pcbnew,6.0.11-2627ca5db0~126~ubuntu22.04.1*%
%TF.CreationDate,2023-09-07T22:45:24+02:00*%
%TF.ProjectId,pcb,7063622e-6b69-4636-9164-5f7063625858,rev?*%
%TF.SameCoordinates,Original*%
%TF.FileFunction,Soldermask,Top*%
%TF.FilePolarity,Negative*%
%FSLAX46Y46*%
G04 Gerber Fmt 4.6, Leading zero omitted, Abs format (unit mm)*
G04 Created by KiCad (PCBNEW 6.0.11-2627ca5db0~126~ubuntu22.04.1) date 2023-09-07 22:45:24*
%MOMM*%
%LPD*%
G01*
G04 APERTURE LIST*
%ADD10O,1.600000X1.600000*%
%ADD11C,1.600000*%
%ADD12C,3.000000*%
%ADD13R,3.000000X3.000000*%
%ADD14O,4.000000X2.000000*%
%ADD15O,2.000000X4.000000*%
%ADD16R,2.000000X4.500000*%
%ADD17C,2.000000*%
%ADD18R,2.000000X2.000000*%
%ADD19C,1.524000*%
G04 APERTURE END LIST*
D10*
%TO.C,R1*%
X87650000Y-118525000D03*
D11*
X87650000Y-108365000D03*
%TD*%
D12*
%TO.C,J2*%
X99060000Y-109220000D03*
X99060000Y-114300000D03*
D13*
X99060000Y-119380000D03*
%TD*%
D14*
%TO.C,J1*%
X99770000Y-100620000D03*
D15*
X96770000Y-95920000D03*
D16*
X102970000Y-95920000D03*
%TD*%
D17*
%TO.C,C1*%
X92275000Y-125828861D03*
D18*
X92275000Y-130828861D03*
%TD*%
D19*
%TO.C,U1*%
X54610000Y-96520000D03*
X54610000Y-99060000D03*
X54610000Y-101600000D03*
X54610000Y-104140000D03*
X54610000Y-106680000D03*
X54610000Y-109220000D03*
X54610000Y-111760000D03*
X54610000Y-114300000D03*
X54610000Y-116840000D03*
X54610000Y-119380000D03*
X54610000Y-121920000D03*
X54610000Y-124460000D03*
X54610000Y-127000000D03*
X54610000Y-129540000D03*
X54610000Y-132080000D03*
X82550000Y-132080000D03*
X82550000Y-129540000D03*
X82550000Y-127000000D03*
X82550000Y-124460000D03*
X82550000Y-121920000D03*
X82550000Y-119380000D03*
X82550000Y-116840000D03*
X82550000Y-114300000D03*
X82550000Y-111760000D03*
X82550000Y-109220000D03*
X82550000Y-106680000D03*
X82550000Y-104140000D03*
X82550000Y-101600000D03*
X82550000Y-99060000D03*
X82550000Y-96520000D03*
%TD*%
M02*
